<svg xmlns="http://www.w3.org/2000/svg" height="400" width="400" xml:space="preserve"><path style="fill:red;fill-opacity:1;fill-rule:nonzero;stroke:none" d="M2501.87 1272.56c-109.75-8.14-146.12-9.12-205.61-17.83-46.53-6.83-111.69-19.04-189.23-42.65-189.64-584.9-333.35-1133.49-433.94-1133.521-112.72.07-215.62 201.902-215.62 300.07 0 93.441 65.62 314.262 208.77 737.781-63.33-17.21-325.49-94.75-403.14-120.172C1054.16 441.27 930.727 74.98 831.508 74.941c-105.242 0-181.203 236.918-181.188 340.071-.015 115.879 150.168 441.609 150.168 441.609-294.625-105.641-563.843-196.922-589.879-176.41-84.043 66.578 110.891 378.029 190.723 434.319 32.945 23.29 282.402 108.86 568.68 197.46 255.898 634.25 635.888 1528.79 720.348 1528.79 68.66 0 160.41-224.94 160.41-347.6-.01-104.77-237.15-635.67-423.63-1076.87 45.24 12.84 285.39 80.84 366.11 104.17 220.28 635.13 531.19 1414.11 618.36 1414.11 77.29 0 138.46-231.57 138.48-370.24 0-91.18-175.58-552.19-323.13-966.45 177.53 45.64 315.02 55.97 429.75 55.97 131.59 0 173.29-119.39 173.29-191.7 0-13.17-.78-38.71-13.51-68.33-32.71-76.14-112.08-101.14-127.8-105.76-43.72-4.03-108.23-9.69-186.82-15.52" transform="matrix(.13333 0 0 -.13333 0 400)"/><path style="fill:none;stroke:red;stroke-width:2.35753012;stroke-linecap:butt;stroke-linejoin:miter;stroke-miterlimit:1;stroke-dasharray:none;stroke-opacity:1" d="M2501.87 1272.56c-109.75-8.14-146.12-9.12-205.61-17.83-46.53-6.83-111.69-19.04-189.23-42.65-189.64-584.9-333.35-1133.49-433.94-1133.521-112.72.07-215.62 201.902-215.62 300.07 0 93.441 65.62 314.262 208.77 737.781-63.33-17.21-325.49-94.75-403.14-120.172C1054.16 441.27 930.727 74.98 831.508 74.941c-105.242 0-181.203 236.918-181.188 340.071-.015 115.879 150.168 441.609 150.168 441.609-294.625-105.641-563.843-196.922-589.879-176.41-84.043 66.578 110.891 378.029 190.723 434.319 32.945 23.29 282.402 108.86 568.68 197.46 255.898 634.25 635.888 1528.79 720.348 1528.79 68.66 0 160.41-224.94 160.41-347.6-.01-104.77-237.15-635.67-423.63-1076.87 45.24 12.84 285.39 80.84 366.11 104.17 220.28 635.13 531.19 1414.11 618.36 1414.11 77.29 0 138.46-231.57 138.48-370.24 0-91.18-175.58-552.19-323.13-966.45 177.53 45.64 315.02 55.97 429.75 55.97 131.59 0 173.29-119.39 173.29-191.7 0-13.17-.78-38.71-13.51-68.33-32.71-76.14-112.08-101.14-127.8-105.76-43.72-4.03-108.23-9.69-186.82-15.52z" transform="matrix(.13333 0 0 -.13333 0 400)"/></svg>