<?xml version="1.0" encoding="utf-8"?>
<!-- Generator: Adobe Illustrator 19.1.0, SVG Export Plug-In . SVG Version: 6.00 Build 0)  -->
<svg version="1.1" id="RZ" xmlns="http://www.w3.org/2000/svg" xmlns:xlink="http://www.w3.org/1999/xlink" x="0px" y="0px"
	 viewBox="766.7 121.5 301.3 104.5" style="enable-background:new 766.7 121.5 301.3 104.5;" xml:space="preserve">
<style type="text/css">
	.st0{fill:#FF0000;stroke:#FF0000;stroke-width:0.2358;stroke-miterlimit:1;}
</style>
<g>
	<path class="st0" d="M985.8,129c2,0,4.9,2.9,4.9,7.9c0,4.7-6,21-9.9,33c-4.2,12.8-8.2,32.6-11.5,32.6c-2.7,0-5.8-6.7-5.8-9.5   c0-2.3,4.8-17.7,8.6-28.8C976.8,150.6,983.1,129,985.8,129z"/>
	<path class="st0" d="M1009.2,156.7c-11.3,0-27.2,17.7-27.2,30.8c0,6.4,4.5,10.4,10,10.4c6.7,0,10.3-3.5,15.1-7.5   c0,3.4,3.5,5.4,5.8,5.4c4.4,0,9-4.9,13.6-9.9c-1,3.1-1.3,5-1.3,7c0,1.9,3.4,6.9,5.2,6.9c0.8,0,3.4-4.6,6.1-8.5   c3.7-5.1,8.5-10.2,11.4-10.2c1,0,1.1,1.1,1.1,2.1c0,2.4-0.6,4.4-0.6,8c0,4.1,1.2,7.5,5.4,7.5c6.3,0,14.2-6.5,14.2-9.8   c0-1.2-0.2-2.3-1.5-2.3c-1.5,0-4.2,1.6-6.6,1.6c-1.2,0-1.8-1.9-1.8-4c0-5.4,1.6-9.3,1.6-15.5c0-3.1-1.4-4.9-4.6-4.9   c-4,0-11.1,6.7-15.4,11.6c1.4-5.1,3.4-11,3.4-13.1c0-3.5-5.1-8-6.7-8c-1.5,0-5.1,12.2-6.6,17.7c-1.8,2.7-9.2,11.6-11.6,11.6   c-2,0-1.9-1.4-1.9-2.3c0-2,6.3-14.2,6.3-17.7c0-2.6-2.6-8-5.6-8c-1.1,0-1.9,1.8-2.4,2.7C1013.5,157.2,1011.7,156.7,1009.2,156.7z    M1011.7,165.9c-2.9,9.6-7.1,21.7-15.3,21.7c-1.6,0-3.3-1.3-3.1-3.9c0.8-8,8.5-17.7,17.3-17.7C1011.1,166,1011.8,166,1011.7,165.9z   "/>
	<path class="st0" d="M939.8,181.5c0,2.8,2.2,4.2,4.8,4.2c4,0,9.4-7.4,9.4-13.3c0-3.8-1.7-6.3-4.9-6.3   C943.2,166.1,939.8,178.4,939.8,181.5z M936.3,191.7c-4.4,15.2-10,34.3-12.4,34.3c-2.8,0-5.6-4.6-5.6-8.1c0-5,4.8-15.4,8.8-28.6   c6-19.8,12.1-41.9,15.5-41.9c2.5,0,5.2,5,5.4,7.4c0.1,1,0.1,2.6-0.1,3.5c1.9-1.5,4.5-2.3,7.4-2.3c4.3,0,9.3,4.2,9.3,13.3   c0,12-10.1,28-20,28C941.2,197.2,937.6,194.8,936.3,191.7z"/>
	<path class="st0" d="M903.1,164.6c0-1.5-0.6-2.3-2.3-2.3c-3.5,0-7.6,5.5-9.2,10.8C898.8,170.8,903.1,166.5,903.1,164.6z    M891.8,182.4c1,2.7,2.6,3.5,4.8,3.5c6.1,0,14.2-5.4,18.9-14.8c5-9.8,13.8-45.7,17-45.7c3.1,0,5.3,4.8,5.3,7.5   c0,4.4-7.1,25-12.6,41.1c-4.4,12.8-7.4,28.4-10.6,28.5c-3,0-5.5-6.2-5.5-8.9c0-2,0.3-3.7,0.6-4.5c-2.9,2.7-9.5,8.2-15.8,8.2   c-6.1,0-11.2-3.4-12.5-13.5c-4.3-0.1-8.5-1.9-8.5-1.9c-3.7,10.8-7.5,21.6-9.5,21.6c-3.3,0-5.9-4.7-5.9-8.4c0-3.1,2.6-10.7,5.5-18.7   c-2.9-2.1-6.7-6.5-6.7-6.5c0,1-0.1,1.4-0.2,2.4c-1.9,15.6-11.2,24.4-18.8,24.4s-12.2-5.7-12.4-11.9c-0.3-5.6,2.5-12.2,4.5-15.1   c0,0-2.7,0.4-7.4,1.6c-5.5,16.9-9.6,32.7-12.5,32.7c-3.3,0-6.2-5.8-6.2-8.7c0-2.7,1.9-9.1,6-21.3c-1.8,0.5-9.4,2.7-11.6,3.5   c-6,16-9.6,26.6-12.5,26.6c-3,0-5.2-6.8-5.2-9.8c0-3.3,4.3-12.8,4.3-12.8c-8.5,3.1-16.3,5.7-17,5.1c-2.4-1.9,3.2-10.9,5.5-12.5   c1-0.7,8.2-3.1,16.4-5.7c7.4-18.3,18.4-44.2,20.8-44.2c2,0,4.6,6.5,4.6,10c0,3-6.9,18.4-12.2,31.1c1.3-0.4,8.2-2.3,10.6-3   c6.4-18.3,15.3-40.8,17.9-40.8c2.2,0,4,6.7,4,10.7c0,2.6-5.1,16-9.3,27.9c5.1-1.3,9.1-1.6,12.4-1.6c3.8,0,5,3.4,5,5.5   c0,2.8-2.1,4.5-4.1,5c-1.5,3.3-3.8,7-3.8,12.3c0,1.9,1.5,4.1,3.2,4.1c4.5,0,8.4-11,9-16.6c0.3-2.7-0.6-5-0.6-5   c-1.7-1.2-2.9-2.3-2.9-5.4c0-3.4,2.6-7.2,6.2-7.2c3,0,4.9,3.1,6.3,6.9c0,0,3.8,5.7,9.8,9.8c5.5-15.7,13.2-38.8,15.2-38.8   c2.9,0,5.9,4.3,5.9,8.3c0,2.2-6.2,21.9-11.1,35.7c0,0,1.9,0.5,3.2,0.8c1.5,0.3,2.6,0.4,2.8,0.3c2.6-9.6,11.3-20.9,19.5-20.9   c6.6,0,10,3.8,10,10.2C911.4,171.2,903.6,178.8,891.8,182.4z"/>
</g>
</svg>
